<svg width="78" height="78" viewBox="0 0 78 78" fill="none" xmlns="http://www.w3.org/2000/svg">
  <rect width="78" height="78" rx="2" fill="white"/>
  <path d="M38.065 17.5398C38.065 17.1142 38.41 16.7692 38.8356 16.7692H53.2295C53.655 16.7692 54 17.1142 54 17.5398V49.7433C54 50.1689 53.655 50.5139 53.2295 50.5139H38.8356C38.41 50.5139 38.065 50.1689 38.065 49.7433V17.5398Z" fill="#00EFC6"/>
  <path d="M23.5361 29.2566C23.5361 28.8311 23.8811 28.4861 24.3066 28.4861H38.7005C39.1261 28.4861 39.4711 28.8311 39.4711 29.2566V61.4602C39.4711 61.8858 39.1261 62.2307 38.7005 62.2307H24.3066C23.8811 62.2307 23.5361 61.8858 23.5361 61.4602V29.2566Z" fill="#612BF3"/>
  <path d="M40.3236 28.4861H24.3066C23.8811 28.4861 23.5361 28.8311 23.5361 29.2566V34.7284C23.5361 34.9328 23.6173 35.1288 23.7618 35.2733L38.7767 50.2882C38.9212 50.4327 39.1172 50.5139 39.3215 50.5139H53.2295C53.655 50.5139 54 50.1689 54 49.7433V42.1625C54 41.9582 53.9188 41.7622 53.7743 41.6177L40.8684 28.7118C40.7239 28.5673 40.5279 28.4861 40.3236 28.4861Z" fill="#3105B5" fill-opacity="0.48"/>
</svg>
