<svg width="31" height="46" viewBox="0 0 31 46" fill="none" xmlns="http://www.w3.org/2000/svg">
  <path d="M14.5289 0.770533C14.5289 0.344979 14.8739 0 15.2995 0H29.6934C30.1189 0 30.4639 0.34498 30.4639 0.770534V32.9741C30.4639 33.3997 30.1189 33.7446 29.6934 33.7446H15.2995C14.8739 33.7446 14.5289 33.3997 14.5289 32.9741V0.770533Z" fill="#00EFC6"/>
  <path d="M0 12.4874C0 12.0619 0.34498 11.7169 0.770534 11.7169H15.1644C15.59 11.7169 15.935 12.0619 15.935 12.4874V44.691C15.935 45.1165 15.59 45.4615 15.1644 45.4615H0.770534C0.34498 45.4615 0 45.1165 0 44.691V12.4874Z" fill="#612BF3"/>
  <path d="M16.7875 11.7169H0.770534C0.34498 11.7169 0 12.0619 0 12.4874V17.9592C0 18.1635 0.0811808 18.3595 0.225684 18.504L15.2406 33.5189C15.3851 33.6635 15.5811 33.7446 15.7855 33.7446H29.6934C30.1189 33.7446 30.4639 33.3997 30.4639 32.9741V25.3933C30.4639 25.1889 30.3827 24.993 30.2382 24.8485L17.3323 11.9426C17.1878 11.7981 16.9918 11.7169 16.7875 11.7169Z" fill="#3105B5" fill-opacity="0.48"/>
</svg>
